<svg xmlns="http://www.w3.org/2000/svg" viewBox="2859.559 1519.435 19.257 37.465">
  <defs>
    <style>
      .cls-1 {
        fill: #FFF;
      }
    </style>
  </defs>
  <path id="Path_3" data-name="Path 3" class="cls-1" d="M19.005,27.3a.757.757,0,0,0-1.08,0l-7.56,7.56V.762A.753.753,0,0,0,9.6,0a.763.763,0,0,0-.762.762v34.1L1.281,27.3a.757.757,0,0,0-1.08,0,.757.757,0,0,0,0,1.08l8.862,8.862a.767.767,0,0,0,1.08,0l8.862-8.862a.757.757,0,0,0,0-1.08Zm0,0" transform="translate(2859.584 1519.435)"/>
</svg>
