<svg xmlns="http://www.w3.org/2000/svg" viewBox="2858 722.421 22.668 34.022">
  <defs>
    <style>
      .cls-1 {
        fill: #fff;
      }
    </style>
  </defs>
  <g id="Mouse" transform="translate(2858 722.421)">
    <path id="Path_1" data-name="Path 1" class="cls-1" d="M11.334,0A11.356,11.356,0,0,0,0,11.334V22.688a11.334,11.334,0,0,0,22.668,0V11.334A11.356,11.356,0,0,0,11.334,0ZM21.415,22.688a10.081,10.081,0,0,1-20.163,0V11.334a10.081,10.081,0,0,1,20.163,0Zm0,0"/>
    <path id="Path_2" data-name="Path 2" class="cls-1" d="M53.626,18.7a.629.629,0,0,0-.626.626v5.7a.626.626,0,1,0,1.253,0v-5.7a.629.629,0,0,0-.626-.626Zm0,0" transform="translate(-42.292 -14.922)"/>
  </g>
</svg>
